<mxfile host="app.diagrams.net" modified="2023-06-30T17:30:03.250Z" agent="Mozilla/5.0 (X11; Linux x86_64; rv:109.0) Gecko/20100101 Firefox/114.0" etag="-cXfp73sF0wbT9yDgnBK" version="21.5.2" type="device">
  <diagram name="Página-1" id="HyhSnH14hnIA8Wp74UKQ">
    <mxGraphModel dx="954" dy="594" grid="1" gridSize="10" guides="1" tooltips="1" connect="1" arrows="1" fold="1" page="1" pageScale="1" pageWidth="827" pageHeight="1169" math="0" shadow="0">
      <root>
        <mxCell id="0" />
        <mxCell id="1" parent="0" />
        <mxCell id="cQK_Mg908IRgJfNLi9hx-1" value="SISTEMA DE E-COMMERCE" style="ellipse;whiteSpace=wrap;html=1;aspect=fixed;" vertex="1" parent="1">
          <mxGeometry x="340.17" y="315" width="120" height="120" as="geometry" />
        </mxCell>
        <mxCell id="cQK_Mg908IRgJfNLi9hx-2" value="" style="endArrow=classic;html=1;rounded=0;exitX=0.75;exitY=1;exitDx=0;exitDy=0;" edge="1" parent="1" source="cQK_Mg908IRgJfNLi9hx-4" target="cQK_Mg908IRgJfNLi9hx-1">
          <mxGeometry width="50" height="50" relative="1" as="geometry">
            <mxPoint x="490.17" y="615" as="sourcePoint" />
            <mxPoint x="530.17" y="315" as="targetPoint" />
          </mxGeometry>
        </mxCell>
        <mxCell id="cQK_Mg908IRgJfNLi9hx-11" value="ENVIAR DADOS" style="edgeLabel;html=1;align=center;verticalAlign=middle;resizable=0;points=[];" vertex="1" connectable="0" parent="cQK_Mg908IRgJfNLi9hx-2">
          <mxGeometry x="0.0218" y="1" relative="1" as="geometry">
            <mxPoint x="43" y="-10" as="offset" />
          </mxGeometry>
        </mxCell>
        <mxCell id="cQK_Mg908IRgJfNLi9hx-3" value="" style="endArrow=classic;html=1;rounded=0;entryX=0.25;entryY=1;entryDx=0;entryDy=0;" edge="1" parent="1" source="cQK_Mg908IRgJfNLi9hx-1" target="cQK_Mg908IRgJfNLi9hx-4">
          <mxGeometry width="50" height="50" relative="1" as="geometry">
            <mxPoint x="670.17" y="565" as="sourcePoint" />
            <mxPoint x="670.17" y="455" as="targetPoint" />
          </mxGeometry>
        </mxCell>
        <mxCell id="cQK_Mg908IRgJfNLi9hx-12" value="&lt;div&gt;INFORMAÇÕES E&lt;/div&gt;&lt;div&gt;RESULTADOS&lt;/div&gt;" style="edgeLabel;html=1;align=center;verticalAlign=middle;resizable=0;points=[];" vertex="1" connectable="0" parent="cQK_Mg908IRgJfNLi9hx-3">
          <mxGeometry x="-0.1564" relative="1" as="geometry">
            <mxPoint x="-53" y="-18" as="offset" />
          </mxGeometry>
        </mxCell>
        <mxCell id="cQK_Mg908IRgJfNLi9hx-4" value="CLIENTES" style="rounded=1;whiteSpace=wrap;html=1;" vertex="1" parent="1">
          <mxGeometry x="340.17" y="165" width="120" height="40" as="geometry" />
        </mxCell>
        <mxCell id="cQK_Mg908IRgJfNLi9hx-13" value="CARRINHO" style="rounded=1;whiteSpace=wrap;html=1;" vertex="1" parent="1">
          <mxGeometry x="70" y="350" width="120" height="45" as="geometry" />
        </mxCell>
        <mxCell id="cQK_Mg908IRgJfNLi9hx-14" value="" style="endArrow=classic;html=1;rounded=0;entryX=1;entryY=0.75;entryDx=0;entryDy=0;" edge="1" parent="1" source="cQK_Mg908IRgJfNLi9hx-1" target="cQK_Mg908IRgJfNLi9hx-13">
          <mxGeometry width="50" height="50" relative="1" as="geometry">
            <mxPoint x="400" y="405" as="sourcePoint" />
            <mxPoint x="450" y="355" as="targetPoint" />
          </mxGeometry>
        </mxCell>
        <mxCell id="cQK_Mg908IRgJfNLi9hx-17" value="&lt;div&gt;RESULTADO E&lt;br&gt;&lt;/div&gt;&lt;div&gt;CONFIRMAÇÃO&lt;/div&gt;" style="edgeLabel;html=1;align=center;verticalAlign=middle;resizable=0;points=[];" vertex="1" connectable="0" parent="cQK_Mg908IRgJfNLi9hx-14">
          <mxGeometry x="0.0578" y="-2" relative="1" as="geometry">
            <mxPoint x="5" y="25" as="offset" />
          </mxGeometry>
        </mxCell>
        <mxCell id="cQK_Mg908IRgJfNLi9hx-15" value="" style="endArrow=classic;html=1;rounded=0;exitX=1;exitY=0.25;exitDx=0;exitDy=0;" edge="1" parent="1" source="cQK_Mg908IRgJfNLi9hx-13" target="cQK_Mg908IRgJfNLi9hx-1">
          <mxGeometry width="50" height="50" relative="1" as="geometry">
            <mxPoint x="400" y="405" as="sourcePoint" />
            <mxPoint x="450" y="355" as="targetPoint" />
          </mxGeometry>
        </mxCell>
        <mxCell id="cQK_Mg908IRgJfNLi9hx-16" value="&lt;div&gt;DADOS DA&lt;/div&gt;&lt;div&gt;COMPRA&lt;/div&gt;" style="edgeLabel;html=1;align=center;verticalAlign=middle;resizable=0;points=[];" vertex="1" connectable="0" parent="cQK_Mg908IRgJfNLi9hx-15">
          <mxGeometry x="0.0378" y="-3" relative="1" as="geometry">
            <mxPoint x="-3" y="-25" as="offset" />
          </mxGeometry>
        </mxCell>
        <mxCell id="cQK_Mg908IRgJfNLi9hx-18" value="FORNECEDOR" style="rounded=1;whiteSpace=wrap;html=1;" vertex="1" parent="1">
          <mxGeometry x="610" y="350" width="120" height="45" as="geometry" />
        </mxCell>
        <mxCell id="cQK_Mg908IRgJfNLi9hx-19" value="" style="endArrow=classic;html=1;rounded=0;entryX=0;entryY=0.25;entryDx=0;entryDy=0;" edge="1" parent="1" source="cQK_Mg908IRgJfNLi9hx-1" target="cQK_Mg908IRgJfNLi9hx-18">
          <mxGeometry width="50" height="50" relative="1" as="geometry">
            <mxPoint x="400" y="405" as="sourcePoint" />
            <mxPoint x="450" y="355" as="targetPoint" />
          </mxGeometry>
        </mxCell>
        <mxCell id="cQK_Mg908IRgJfNLi9hx-24" value="&lt;div&gt;RESULTADO &lt;br&gt;&lt;/div&gt;" style="edgeLabel;html=1;align=center;verticalAlign=middle;resizable=0;points=[];" vertex="1" connectable="0" parent="cQK_Mg908IRgJfNLi9hx-19">
          <mxGeometry x="-0.0058" y="-3" relative="1" as="geometry">
            <mxPoint x="10" y="-20" as="offset" />
          </mxGeometry>
        </mxCell>
        <mxCell id="cQK_Mg908IRgJfNLi9hx-20" value="" style="endArrow=classic;html=1;rounded=0;exitX=0;exitY=0.75;exitDx=0;exitDy=0;" edge="1" parent="1" source="cQK_Mg908IRgJfNLi9hx-18" target="cQK_Mg908IRgJfNLi9hx-1">
          <mxGeometry width="50" height="50" relative="1" as="geometry">
            <mxPoint x="400" y="405" as="sourcePoint" />
            <mxPoint x="450" y="355" as="targetPoint" />
          </mxGeometry>
        </mxCell>
        <mxCell id="cQK_Mg908IRgJfNLi9hx-25" value="&lt;div&gt;PRODUTOS E&lt;/div&gt;&lt;div&gt;DADOS&lt;br&gt;&lt;/div&gt;" style="edgeLabel;html=1;align=center;verticalAlign=middle;resizable=0;points=[];" vertex="1" connectable="0" parent="cQK_Mg908IRgJfNLi9hx-20">
          <mxGeometry x="-0.3045" y="-4" relative="1" as="geometry">
            <mxPoint x="-13" y="25" as="offset" />
          </mxGeometry>
        </mxCell>
        <mxCell id="cQK_Mg908IRgJfNLi9hx-21" value="ADMINISTRADOR" style="rounded=1;whiteSpace=wrap;html=1;" vertex="1" parent="1">
          <mxGeometry x="340.17" y="545" width="120" height="40" as="geometry" />
        </mxCell>
        <mxCell id="cQK_Mg908IRgJfNLi9hx-22" value="" style="endArrow=classic;html=1;rounded=0;exitX=0.25;exitY=0;exitDx=0;exitDy=0;" edge="1" parent="1" source="cQK_Mg908IRgJfNLi9hx-21" target="cQK_Mg908IRgJfNLi9hx-1">
          <mxGeometry width="50" height="50" relative="1" as="geometry">
            <mxPoint x="400" y="405" as="sourcePoint" />
            <mxPoint x="450" y="355" as="targetPoint" />
          </mxGeometry>
        </mxCell>
        <mxCell id="cQK_Mg908IRgJfNLi9hx-27" value="&lt;div&gt;CADASTRO E&lt;/div&gt;&lt;div&gt;EDIÇÃO GERAL&lt;/div&gt;" style="edgeLabel;html=1;align=center;verticalAlign=middle;resizable=0;points=[];" vertex="1" connectable="0" parent="cQK_Mg908IRgJfNLi9hx-22">
          <mxGeometry x="-0.3267" y="4" relative="1" as="geometry">
            <mxPoint x="-39" y="-24" as="offset" />
          </mxGeometry>
        </mxCell>
        <mxCell id="cQK_Mg908IRgJfNLi9hx-23" value="" style="endArrow=classic;html=1;rounded=0;entryX=0.75;entryY=0;entryDx=0;entryDy=0;" edge="1" parent="1" source="cQK_Mg908IRgJfNLi9hx-1" target="cQK_Mg908IRgJfNLi9hx-21">
          <mxGeometry width="50" height="50" relative="1" as="geometry">
            <mxPoint x="400" y="405" as="sourcePoint" />
            <mxPoint x="470" y="505" as="targetPoint" />
          </mxGeometry>
        </mxCell>
        <mxCell id="cQK_Mg908IRgJfNLi9hx-26" value="&lt;div&gt;CONFIRMAÇÃO DE&lt;br&gt;&lt;/div&gt;&lt;div&gt;ALTERAÇÃO E CADASTRO&lt;/div&gt;" style="edgeLabel;html=1;align=center;verticalAlign=middle;resizable=0;points=[];" vertex="1" connectable="0" parent="cQK_Mg908IRgJfNLi9hx-23">
          <mxGeometry x="-0.1094" y="3" relative="1" as="geometry">
            <mxPoint x="68" as="offset" />
          </mxGeometry>
        </mxCell>
      </root>
    </mxGraphModel>
  </diagram>
</mxfile>
